<svg xmlns="http://www.w3.org/2000/svg" xmlns:xlink="http://www.w3.org/1999/xlink" width="150" zoomAndPan="magnify" viewBox="0 0 112.5 37.5" height="50" preserveAspectRatio="xMidYMid meet" version="1.0"><defs><g/><clipPath id="30bae92ca8"><path d="M 1 10 L 17 10 L 17 30.550781 L 1 30.550781 Z M 1 10 " clip-rule="nonzero"/></clipPath><clipPath id="3925b1f609"><rect x="0" width="32" y="0" height="31"/></clipPath><clipPath id="25a3f552a3"><path d="M 33 0 L 61 0 L 61 37.007812 L 33 37.007812 Z M 33 0 " clip-rule="nonzero"/></clipPath><clipPath id="8072f8e82b"><path d="M 13 2 L 27.175781 2 L 27.175781 29 L 13 29 Z M 13 2 " clip-rule="nonzero"/></clipPath><clipPath id="09f94122b1"><rect x="0" width="28" y="0" height="38"/></clipPath><clipPath id="3183b4e663"><rect x="0" width="48" y="0" height="31"/></clipPath><clipPath id="d8228679b7"><path d="M 0.441406 1 L 37.625 1 L 37.625 8.449219 L 0.441406 8.449219 Z M 0.441406 1 " clip-rule="nonzero"/></clipPath><clipPath id="005b88863a"><rect x="0" width="38" y="0" height="9"/></clipPath><clipPath id="a3f37aa9d6"><path d="M 104.273438 4.628906 L 107.972656 4.628906 L 107.972656 8.328125 L 104.273438 8.328125 Z M 104.273438 4.628906 " clip-rule="nonzero"/></clipPath><clipPath id="9b2aa12937"><path d="M 106.125 4.628906 C 105.101562 4.628906 104.273438 5.457031 104.273438 6.476562 C 104.273438 7.5 105.101562 8.328125 106.125 8.328125 C 107.144531 8.328125 107.972656 7.5 107.972656 6.476562 C 107.972656 5.457031 107.144531 4.628906 106.125 4.628906 Z M 106.125 4.628906 " clip-rule="nonzero"/></clipPath><clipPath id="81295f24fe"><path d="M 0.273438 0.628906 L 3.972656 0.628906 L 3.972656 4.328125 L 0.273438 4.328125 Z M 0.273438 0.628906 " clip-rule="nonzero"/></clipPath><clipPath id="5e036c5616"><path d="M 2.125 0.628906 C 1.101562 0.628906 0.273438 1.457031 0.273438 2.476562 C 0.273438 3.5 1.101562 4.328125 2.125 4.328125 C 3.144531 4.328125 3.972656 3.5 3.972656 2.476562 C 3.972656 1.457031 3.144531 0.628906 2.125 0.628906 Z M 2.125 0.628906 " clip-rule="nonzero"/></clipPath><clipPath id="0e00a8b520"><rect x="0" width="4" y="0" height="5"/></clipPath></defs><g transform="matrix(1, 0, 0, 1, 2, -0.000000000000001478)"><g clip-path="url(#3925b1f609)"><g clip-path="url(#30bae92ca8)"><g fill="#15ac71" fill-opacity="1"><g transform="translate(0.681992, 23.246905)"><g><path d="M 8.34375 -3.0625 C 8.894531 -3.0625 9.390625 -3.203125 9.828125 -3.484375 C 10.265625 -3.773438 10.609375 -4.15625 10.859375 -4.625 C 11.117188 -5.101562 11.25 -5.609375 11.25 -6.140625 C 11.25 -6.679688 11.117188 -7.179688 10.859375 -7.640625 C 10.609375 -8.109375 10.265625 -8.484375 9.828125 -8.765625 C 9.390625 -9.054688 8.894531 -9.203125 8.34375 -9.203125 C 7.78125 -9.203125 7.28125 -9.054688 6.84375 -8.765625 C 6.414062 -8.484375 6.070312 -8.109375 5.8125 -7.640625 C 5.550781 -7.179688 5.421875 -6.679688 5.421875 -6.140625 C 5.421875 -5.609375 5.550781 -5.101562 5.8125 -4.625 C 6.070312 -4.15625 6.414062 -3.773438 6.84375 -3.484375 C 7.28125 -3.203125 7.78125 -3.0625 8.34375 -3.0625 Z M 11.25 -10.75 L 11.25 -12.265625 L 15.421875 -12.265625 L 15.421875 -0.03125 C 15.421875 1.300781 15.101562 2.492188 14.46875 3.546875 C 13.832031 4.609375 12.972656 5.441406 11.890625 6.046875 C 10.816406 6.648438 9.632812 6.953125 8.34375 6.953125 C 7.507812 6.953125 6.675781 6.84375 5.84375 6.625 C 5.019531 6.414062 4.257812 6.09375 3.5625 5.65625 C 2.875 5.21875 2.316406 4.65625 1.890625 3.96875 C 1.460938 3.289062 1.222656 2.488281 1.171875 1.5625 L 5.34375 1.5625 C 5.488281 2.28125 5.816406 2.84375 6.328125 3.25 C 6.847656 3.65625 7.441406 3.859375 8.109375 3.859375 C 8.722656 3.859375 9.265625 3.695312 9.734375 3.375 C 10.210938 3.050781 10.582031 2.625 10.84375 2.09375 C 11.113281 1.570312 11.25 1.019531 11.25 0.4375 L 11.25 -1.5 C 10.84375 -0.875 10.238281 -0.421875 9.4375 -0.140625 C 8.632812 0.140625 7.84375 0.28125 7.0625 0.28125 C 5.914062 0.28125 4.878906 -0.0195312 3.953125 -0.625 C 3.023438 -1.226562 2.296875 -2.015625 1.765625 -2.984375 C 1.234375 -3.960938 0.96875 -5.015625 0.96875 -6.140625 C 0.96875 -7.273438 1.234375 -8.328125 1.765625 -9.296875 C 2.296875 -10.265625 3.023438 -11.046875 3.953125 -11.640625 C 4.878906 -12.234375 5.914062 -12.53125 7.0625 -12.53125 C 7.84375 -12.53125 8.585938 -12.410156 9.296875 -12.171875 C 10.015625 -11.929688 10.664062 -11.457031 11.25 -10.75 Z M 11.25 -10.75 "/></g></g></g></g><g fill="#15ac71" fill-opacity="1"><g transform="translate(15.831367, 23.246905)"><g><path d="M 7.984375 -2.890625 C 8.722656 -2.890625 9.296875 -3.046875 9.703125 -3.359375 C 10.109375 -3.679688 10.394531 -4.085938 10.5625 -4.578125 C 10.726562 -5.066406 10.8125 -5.570312 10.8125 -6.09375 C 10.8125 -6.601562 10.722656 -7.097656 10.546875 -7.578125 C 10.367188 -8.066406 10.078125 -8.46875 9.671875 -8.78125 C 9.265625 -9.09375 8.703125 -9.25 7.984375 -9.25 C 7.253906 -9.25 6.679688 -9.09375 6.265625 -8.78125 C 5.847656 -8.46875 5.550781 -8.066406 5.375 -7.578125 C 5.195312 -7.097656 5.109375 -6.601562 5.109375 -6.09375 C 5.109375 -5.570312 5.191406 -5.066406 5.359375 -4.578125 C 5.523438 -4.085938 5.816406 -3.679688 6.234375 -3.359375 C 6.648438 -3.046875 7.234375 -2.890625 7.984375 -2.890625 Z M 7.984375 -12.515625 C 9.253906 -12.515625 10.414062 -12.242188 11.46875 -11.703125 C 12.53125 -11.160156 13.375 -10.410156 14 -9.453125 C 14.632812 -8.503906 14.953125 -7.390625 14.953125 -6.109375 C 14.953125 -4.816406 14.640625 -3.691406 14.015625 -2.734375 C 13.398438 -1.785156 12.5625 -1.050781 11.5 -0.53125 C 10.445312 -0.0078125 9.273438 0.25 7.984375 0.25 C 6.679688 0.25 5.492188 -0.0078125 4.421875 -0.53125 C 3.359375 -1.050781 2.515625 -1.785156 1.890625 -2.734375 C 1.273438 -3.691406 0.96875 -4.816406 0.96875 -6.109375 C 0.96875 -7.390625 1.28125 -8.503906 1.90625 -9.453125 C 2.539062 -10.410156 3.390625 -11.160156 4.453125 -11.703125 C 5.523438 -12.242188 6.703125 -12.515625 7.984375 -12.515625 Z M 7.984375 -12.515625 "/></g></g></g></g></g><g clip-path="url(#25a3f552a3)"><g transform="matrix(1, 0, 0, 1, 33, -0.000000000000001443)"><g clip-path="url(#09f94122b1)"><g fill="#5ccbf5" fill-opacity="1"><g transform="translate(0.761904, 23.185628)"><g><path d="M 8.625 -6.84375 C 8.675781 -7.09375 8.703125 -7.332031 8.703125 -7.5625 C 8.703125 -7.988281 8.5625 -8.34375 8.28125 -8.625 C 8.007812 -8.914062 7.582031 -9.0625 7 -9.0625 C 6.351562 -9.0625 5.8125 -8.890625 5.375 -8.546875 C 4.945312 -8.203125 4.625 -7.75 4.40625 -7.1875 C 4.1875 -6.625 4.078125 -6.007812 4.078125 -5.34375 C 4.078125 -4.25 4.316406 -3.363281 4.796875 -2.6875 C 5.285156 -2.019531 5.921875 -1.523438 6.703125 -1.203125 C 7.492188 -0.890625 8.332031 -0.734375 9.21875 -0.734375 C 9.675781 -0.734375 10.148438 -0.757812 10.640625 -0.8125 C 11.128906 -0.863281 11.609375 -0.957031 12.078125 -1.09375 L 12.078125 2.765625 C 11.554688 2.847656 11.046875 2.921875 10.546875 2.984375 C 10.046875 3.046875 9.554688 3.078125 9.078125 3.078125 C 7.796875 3.078125 6.625 2.863281 5.5625 2.4375 C 4.5 2.007812 3.585938 1.410156 2.828125 0.640625 C 2.066406 -0.117188 1.476562 -1.003906 1.0625 -2.015625 C 0.65625 -3.035156 0.453125 -4.144531 0.453125 -5.34375 C 0.453125 -6.664062 0.71875 -7.875 1.25 -8.96875 C 1.789062 -10.0625 2.546875 -10.929688 3.515625 -11.578125 C 4.492188 -12.234375 5.640625 -12.5625 6.953125 -12.5625 C 8.148438 -12.5625 9.179688 -12.328125 10.046875 -11.859375 C 10.910156 -11.398438 11.546875 -10.742188 11.953125 -9.890625 C 12.367188 -9.035156 12.476562 -8.019531 12.28125 -6.84375 Z M 8.625 -6.84375 "/></g></g></g><g clip-path="url(#8072f8e82b)"><g fill="#5ccbf5" fill-opacity="1"><g transform="translate(12.958023, 23.185628)"><g><path d="M 14.0625 -14.375 C 14.0625 -13.789062 13.945312 -13.097656 13.71875 -12.296875 C 13.5 -11.492188 13.160156 -10.648438 12.703125 -9.765625 C 12.242188 -8.890625 11.648438 -8.023438 10.921875 -7.171875 C 10.203125 -6.316406 9.347656 -5.523438 8.359375 -4.796875 C 7.378906 -4.066406 6.25 -3.457031 4.96875 -2.96875 C 3.6875 -2.476562 2.253906 -2.175781 0.671875 -2.0625 L 0.671875 -6.046875 C 1.660156 -6.140625 2.539062 -6.300781 3.3125 -6.53125 C 3.175781 -7.09375 3.0625 -7.734375 2.96875 -8.453125 C 2.882812 -9.179688 2.84375 -10.097656 2.84375 -11.203125 C 2.84375 -12.328125 2.976562 -13.4375 3.25 -14.53125 C 3.53125 -15.625 3.9375 -16.609375 4.46875 -17.484375 C 5 -18.367188 5.640625 -19.078125 6.390625 -19.609375 C 7.140625 -20.140625 7.984375 -20.40625 8.921875 -20.40625 C 10.085938 -20.40625 11.050781 -20.148438 11.8125 -19.640625 C 12.570312 -19.128906 13.132812 -18.421875 13.5 -17.515625 C 13.875 -16.617188 14.0625 -15.570312 14.0625 -14.375 Z M 6.71875 -8.203125 C 7.570312 -8.847656 8.253906 -9.546875 8.765625 -10.296875 C 9.285156 -11.054688 9.660156 -11.804688 9.890625 -12.546875 C 10.128906 -13.285156 10.25 -13.925781 10.25 -14.46875 C 10.25 -15.894531 9.804688 -16.609375 8.921875 -16.609375 C 8.503906 -16.609375 8.144531 -16.421875 7.84375 -16.046875 C 7.550781 -15.679688 7.304688 -15.195312 7.109375 -14.59375 C 6.910156 -14 6.765625 -13.351562 6.671875 -12.65625 C 6.585938 -11.957031 6.546875 -11.289062 6.546875 -10.65625 C 6.546875 -10.1875 6.5625 -9.742188 6.59375 -9.328125 C 6.625 -8.921875 6.664062 -8.546875 6.71875 -8.203125 Z M 7.921875 -3.765625 C 8.554688 -2.347656 9.40625 -1.28125 10.46875 -0.5625 C 11.539062 0.144531 12.65625 0.578125 13.8125 0.734375 L 13.8125 5.65625 C 12.945312 5.550781 12.050781 5.300781 11.125 4.90625 C 10.207031 4.507812 9.328125 3.972656 8.484375 3.296875 C 7.640625 2.617188 6.867188 1.8125 6.171875 0.875 C 5.484375 -0.0507812 4.914062 -1.101562 4.46875 -2.28125 C 5.03125 -2.40625 5.484375 -2.539062 5.828125 -2.6875 C 6.171875 -2.84375 6.492188 -3.007812 6.796875 -3.1875 C 7.109375 -3.363281 7.484375 -3.554688 7.921875 -3.765625 Z M 7.921875 -3.765625 "/></g></g></g></g><g fill="#5ccbf5" fill-opacity="1"><g transform="translate(24.616551, 23.185628)"><g/></g></g></g></g></g><g transform="matrix(1, 0, 0, 1, 59, -0.000000000000001478)"><g clip-path="url(#3183b4e663)"><g fill="#5ccbf5" fill-opacity="1"><g transform="translate(1.098556, 23.36546)"><g><path d="M 5.453125 -7.59375 L 10.921875 -7.59375 C 10.921875 -7.59375 10.894531 -7.707031 10.84375 -7.9375 C 10.800781 -8.164062 10.691406 -8.425781 10.515625 -8.71875 C 10.335938 -9.019531 10.0625 -9.285156 9.6875 -9.515625 C 9.320312 -9.753906 8.828125 -9.875 8.203125 -9.875 C 7.554688 -9.875 7.046875 -9.753906 6.671875 -9.515625 C 6.296875 -9.285156 6.019531 -9.019531 5.84375 -8.71875 C 5.675781 -8.425781 5.566406 -8.164062 5.515625 -7.9375 C 5.472656 -7.707031 5.453125 -7.59375 5.453125 -7.59375 Z M 14.921875 -6.390625 C 14.921875 -6.265625 14.914062 -6.132812 14.90625 -6 C 14.90625 -5.875 14.90625 -5.742188 14.90625 -5.609375 L 5.390625 -5.609375 C 5.390625 -5.148438 5.492188 -4.691406 5.703125 -4.234375 C 5.921875 -3.785156 6.226562 -3.414062 6.625 -3.125 C 7.03125 -2.84375 7.5 -2.703125 8.03125 -2.703125 C 8.769531 -2.703125 9.351562 -2.898438 9.78125 -3.296875 C 10.207031 -3.691406 10.429688 -4.113281 10.453125 -4.5625 L 14.703125 -4.5625 C 14.347656 -2.945312 13.566406 -1.734375 12.359375 -0.921875 C 11.160156 -0.117188 9.742188 0.28125 8.109375 0.28125 C 6.703125 0.28125 5.460938 0.015625 4.390625 -0.515625 C 3.316406 -1.046875 2.476562 -1.785156 1.875 -2.734375 C 1.269531 -3.691406 0.96875 -4.816406 0.96875 -6.109375 C 0.96875 -7.390625 1.273438 -8.507812 1.890625 -9.46875 C 2.515625 -10.4375 3.363281 -11.1875 4.4375 -11.71875 C 5.519531 -12.257812 6.742188 -12.53125 8.109375 -12.53125 C 9.359375 -12.53125 10.492188 -12.289062 11.515625 -11.8125 C 12.546875 -11.332031 13.367188 -10.632812 13.984375 -9.71875 C 14.609375 -8.8125 14.921875 -7.703125 14.921875 -6.390625 Z M 14.921875 -6.390625 "/></g></g></g><g fill="#5ccbf5" fill-opacity="1"><g transform="translate(16.163261, 23.36546)"><g><path d="M 11.25 -6.109375 C 11.25 -6.648438 11.117188 -7.148438 10.859375 -7.609375 C 10.609375 -8.078125 10.265625 -8.453125 9.828125 -8.734375 C 9.390625 -9.023438 8.894531 -9.171875 8.34375 -9.171875 C 7.78125 -9.171875 7.28125 -9.023438 6.84375 -8.734375 C 6.414062 -8.453125 6.070312 -8.078125 5.8125 -7.609375 C 5.550781 -7.148438 5.421875 -6.648438 5.421875 -6.109375 C 5.421875 -5.578125 5.550781 -5.078125 5.8125 -4.609375 C 6.070312 -4.148438 6.414062 -3.773438 6.84375 -3.484375 C 7.28125 -3.203125 7.78125 -3.0625 8.34375 -3.0625 C 8.894531 -3.0625 9.390625 -3.203125 9.828125 -3.484375 C 10.265625 -3.773438 10.609375 -4.148438 10.859375 -4.609375 C 11.117188 -5.078125 11.25 -5.578125 11.25 -6.109375 Z M 15.421875 -12.234375 L 15.421875 0 L 11.25 0 L 11.25 -1.46875 C 10.84375 -0.84375 10.238281 -0.394531 9.4375 -0.125 C 8.632812 0.144531 7.84375 0.28125 7.0625 0.28125 C 5.914062 0.28125 4.878906 -0.015625 3.953125 -0.609375 C 3.023438 -1.203125 2.296875 -1.984375 1.765625 -2.953125 C 1.234375 -3.929688 0.96875 -4.984375 0.96875 -6.109375 C 0.96875 -7.242188 1.234375 -8.296875 1.765625 -9.265625 C 2.296875 -10.242188 3.023438 -11.03125 3.953125 -11.625 C 4.878906 -12.226562 5.914062 -12.53125 7.0625 -12.53125 C 7.84375 -12.53125 8.601562 -12.398438 9.34375 -12.140625 C 10.082031 -11.890625 10.71875 -11.425781 11.25 -10.75 L 11.25 -12.234375 Z M 15.421875 -12.234375 "/></g></g></g><g fill="#5ccbf5" fill-opacity="1"><g transform="translate(32.423146, 23.36546)"><g><path d="M 14.203125 -6.953125 L 14.203125 0 L 10.03125 0 L 10.03125 -6.953125 C 10.03125 -7.671875 9.878906 -8.21875 9.578125 -8.59375 C 9.285156 -8.976562 8.816406 -9.171875 8.171875 -9.171875 C 7.523438 -9.171875 6.972656 -8.867188 6.515625 -8.265625 C 6.066406 -7.660156 5.84375 -6.941406 5.84375 -6.109375 L 5.84375 0 L 1.671875 0 L 1.671875 -12.265625 L 5.84375 -12.265625 L 5.84375 -10.75 C 6.269531 -11.289062 6.800781 -11.722656 7.4375 -12.046875 C 8.070312 -12.367188 8.789062 -12.53125 9.59375 -12.53125 C 11.238281 -12.53125 12.414062 -12.015625 13.125 -10.984375 C 13.84375 -9.960938 14.203125 -8.617188 14.203125 -6.953125 Z M 14.203125 -6.953125 "/></g></g></g></g></g><g transform="matrix(1, 0, 0, 1, 64, 24)"><g clip-path="url(#005b88863a)"><g clip-path="url(#d8228679b7)"><path fill="#f99d0c" d="M 0.667969 1.050781 L 37.554688 1.050781 L 37.554688 8.382812 L 0.667969 8.382812 L 0.667969 1.050781 " fill-opacity="1" fill-rule="nonzero"/></g><g fill="#ffffff" fill-opacity="1"><g transform="translate(2.61387, 6.268192)"><g><path d="M 3.140625 -3.03125 L 3.140625 0 L 2.203125 0 L 2.203125 -3.03125 Z M 1.21875 -3.03125 L 1.21875 0 L 0.28125 0 L 0.28125 -3.03125 Z M 2.71875 -1.875 L 2.71875 -1.171875 L 0.734375 -1.171875 L 0.734375 -1.875 Z M 2.71875 -1.875 "/></g></g></g><g fill="#ffffff" fill-opacity="1"><g transform="translate(6.035919, 6.268192)"><g><path d="M 1.21875 -3.03125 L 1.21875 0 L 0.28125 0 L 0.28125 -3.03125 Z M 1.21875 -3.03125 "/></g></g></g><g fill="#ffffff" fill-opacity="1"><g transform="translate(7.533353, 6.268192)"><g><path d="M 1.546875 0.046875 C 1.285156 0.046875 1.050781 -0.0078125 0.84375 -0.125 C 0.632812 -0.238281 0.46875 -0.410156 0.34375 -0.640625 C 0.226562 -0.878906 0.171875 -1.164062 0.171875 -1.5 C 0.171875 -1.832031 0.226562 -2.113281 0.34375 -2.34375 C 0.46875 -2.582031 0.644531 -2.765625 0.875 -2.890625 C 1.113281 -3.015625 1.394531 -3.078125 1.71875 -3.078125 C 2.070312 -3.078125 2.359375 -3.007812 2.578125 -2.875 C 2.796875 -2.75 2.96875 -2.550781 3.09375 -2.28125 L 2.21875 -1.953125 C 2.1875 -2.097656 2.125 -2.203125 2.03125 -2.265625 C 1.945312 -2.328125 1.84375 -2.359375 1.71875 -2.359375 C 1.582031 -2.359375 1.472656 -2.328125 1.390625 -2.265625 C 1.304688 -2.203125 1.238281 -2.109375 1.1875 -1.984375 C 1.144531 -1.859375 1.125 -1.703125 1.125 -1.515625 C 1.125 -1.316406 1.144531 -1.148438 1.1875 -1.015625 C 1.238281 -0.890625 1.3125 -0.796875 1.40625 -0.734375 C 1.507812 -0.671875 1.632812 -0.640625 1.78125 -0.640625 C 1.851562 -0.640625 1.921875 -0.648438 1.984375 -0.671875 C 2.046875 -0.691406 2.097656 -0.71875 2.140625 -0.75 C 2.191406 -0.78125 2.226562 -0.820312 2.25 -0.875 C 2.28125 -0.925781 2.296875 -0.984375 2.296875 -1.046875 L 2.296875 -1.078125 L 1.6875 -1.078125 L 1.6875 -1.671875 L 3.078125 -1.671875 L 3.078125 0 L 2.453125 0 L 2.375 -0.765625 L 2.53125 -0.625 C 2.46875 -0.40625 2.351562 -0.238281 2.1875 -0.125 C 2.03125 -0.0078125 1.816406 0.046875 1.546875 0.046875 Z M 1.546875 0.046875 "/></g></g></g><g fill="#ffffff" fill-opacity="1"><g transform="translate(10.849754, 6.268192)"><g><path d="M 1.21875 -3.03125 L 1.21875 0 L 0.28125 0 L 0.28125 -3.03125 Z M 1.21875 -3.03125 "/></g></g></g><g fill="#ffffff" fill-opacity="1"><g transform="translate(12.347188, 6.268192)"><g><path d="M 0.28125 0 L 0.28125 -3.03125 L 2.71875 -3.03125 L 2.71875 -2.328125 L 1.21875 -2.328125 L 1.21875 -1.84375 L 2.421875 -1.84375 L 2.421875 -1.1875 L 1.21875 -1.1875 L 1.21875 -0.703125 L 2.78125 -0.703125 L 2.78125 0 Z M 0.28125 0 "/></g></g></g><g fill="#ffffff" fill-opacity="1"><g transform="translate(15.231815, 6.268192)"><g><path d="M 3.140625 -3.03125 L 3.140625 0 L 2.109375 0 L 1.28125 -1.5 L 1.09375 -1.90625 L 1.078125 -1.90625 L 1.09375 -1.3125 L 1.09375 0 L 0.28125 0 L 0.28125 -3.03125 L 1.296875 -3.03125 L 2.125 -1.53125 L 2.328125 -1.125 L 2.3125 -1.71875 L 2.3125 -3.03125 Z M 3.140625 -3.03125 "/></g></g></g><g fill="#ffffff" fill-opacity="1"><g transform="translate(18.649271, 6.268192)"><g><path d="M 1.21875 -3.03125 L 1.21875 0 L 0.28125 0 L 0.28125 -3.03125 Z M 1.21875 -3.03125 "/></g></g></g><g fill="#ffffff" fill-opacity="1"><g transform="translate(20.146705, 6.268192)"><g><path d="M 0.859375 -0.375 L 0.6875 -0.6875 L 2.8125 -0.6875 L 2.8125 0 L 0.140625 0 L 0.140625 -0.65625 L 2.046875 -2.65625 L 2.21875 -2.34375 L 0.171875 -2.34375 L 0.171875 -3.03125 L 2.765625 -3.03125 L 2.765625 -2.375 Z M 0.859375 -0.375 "/></g></g></g><g fill="#ffffff" fill-opacity="1"><g transform="translate(23.068078, 6.268192)"><g><path d="M 3.15625 0 L 2.1875 0 L 2.015625 -0.625 L 1.09375 -0.625 L 0.921875 0 L -0.015625 0 L 1 -3.03125 L 2.125 -3.03125 Z M 1.25 -1.234375 L 1.875 -1.234375 L 1.5625 -2.359375 Z M 1.25 -1.234375 "/></g></g></g><g fill="#ffffff" fill-opacity="1"><g transform="translate(26.095093, 6.268192)"><g><path d="M 3.046875 -0.90625 C 2.992188 -0.675781 2.898438 -0.488281 2.765625 -0.34375 C 2.640625 -0.207031 2.484375 -0.109375 2.296875 -0.046875 C 2.109375 0.015625 1.90625 0.046875 1.6875 0.046875 C 1.375 0.046875 1.101562 -0.015625 0.875 -0.140625 C 0.644531 -0.265625 0.46875 -0.441406 0.34375 -0.671875 C 0.226562 -0.910156 0.171875 -1.191406 0.171875 -1.515625 C 0.171875 -1.835938 0.226562 -2.113281 0.34375 -2.34375 C 0.46875 -2.582031 0.644531 -2.765625 0.875 -2.890625 C 1.101562 -3.015625 1.375 -3.078125 1.6875 -3.078125 C 1.90625 -3.078125 2.101562 -3.046875 2.28125 -2.984375 C 2.46875 -2.921875 2.625 -2.828125 2.75 -2.703125 C 2.882812 -2.578125 2.972656 -2.410156 3.015625 -2.203125 L 2.203125 -1.875 C 2.171875 -2.070312 2.113281 -2.203125 2.03125 -2.265625 C 1.945312 -2.328125 1.835938 -2.359375 1.703125 -2.359375 C 1.585938 -2.359375 1.484375 -2.328125 1.390625 -2.265625 C 1.304688 -2.203125 1.238281 -2.109375 1.1875 -1.984375 C 1.144531 -1.859375 1.125 -1.703125 1.125 -1.515625 C 1.125 -1.328125 1.144531 -1.171875 1.1875 -1.046875 C 1.226562 -0.921875 1.289062 -0.828125 1.375 -0.765625 C 1.46875 -0.703125 1.585938 -0.671875 1.734375 -0.671875 C 1.859375 -0.671875 1.960938 -0.707031 2.046875 -0.78125 C 2.128906 -0.851562 2.1875 -0.96875 2.21875 -1.125 Z M 1.25 -0.0625 L 1.4375 -0.1875 C 1.695312 -0.15625 1.890625 -0.09375 2.015625 0 C 2.140625 0.09375 2.203125 0.226562 2.203125 0.40625 C 2.203125 0.582031 2.144531 0.722656 2.03125 0.828125 C 1.914062 0.929688 1.75 0.984375 1.53125 0.984375 C 1.40625 0.984375 1.304688 0.96875 1.234375 0.9375 C 1.160156 0.914062 1.097656 0.890625 1.046875 0.859375 L 1.1875 0.4375 C 1.21875 0.46875 1.253906 0.488281 1.296875 0.5 C 1.335938 0.507812 1.390625 0.515625 1.453125 0.515625 C 1.523438 0.515625 1.582031 0.492188 1.625 0.453125 C 1.675781 0.410156 1.703125 0.351562 1.703125 0.28125 C 1.703125 0.207031 1.671875 0.144531 1.609375 0.09375 C 1.546875 0.0390625 1.425781 -0.0078125 1.25 -0.0625 Z M 1.25 -0.0625 "/></g></g></g><g fill="#ffffff" fill-opacity="1"><g transform="translate(29.213982, 6.268192)"><g><path d="M 3.15625 0 L 2.1875 0 L 2.015625 -0.625 L 1.09375 -0.625 L 0.921875 0 L -0.015625 0 L 1 -3.03125 L 2.125 -3.03125 Z M 1.25 -1.234375 L 1.875 -1.234375 L 1.5625 -2.359375 Z M 2.5 -4.03125 C 2.5 -3.863281 2.46875 -3.722656 2.40625 -3.609375 C 2.351562 -3.492188 2.28125 -3.40625 2.1875 -3.34375 C 2.101562 -3.289062 2.015625 -3.265625 1.921875 -3.265625 C 1.828125 -3.265625 1.75 -3.273438 1.6875 -3.296875 C 1.625 -3.328125 1.566406 -3.359375 1.515625 -3.390625 C 1.472656 -3.421875 1.429688 -3.445312 1.390625 -3.46875 C 1.359375 -3.5 1.316406 -3.515625 1.265625 -3.515625 C 1.222656 -3.515625 1.1875 -3.492188 1.15625 -3.453125 C 1.132812 -3.410156 1.117188 -3.347656 1.109375 -3.265625 L 0.625 -3.265625 C 0.632812 -3.523438 0.695312 -3.71875 0.8125 -3.84375 C 0.925781 -3.976562 1.070312 -4.046875 1.25 -4.046875 C 1.332031 -4.046875 1.398438 -4.03125 1.453125 -4 C 1.515625 -3.976562 1.566406 -3.953125 1.609375 -3.921875 C 1.648438 -3.890625 1.6875 -3.859375 1.71875 -3.828125 C 1.757812 -3.804688 1.804688 -3.796875 1.859375 -3.796875 C 1.898438 -3.796875 1.929688 -3.8125 1.953125 -3.84375 C 1.984375 -3.882812 2.003906 -3.945312 2.015625 -4.03125 Z M 2.5 -4.03125 "/></g></g></g><g fill="#ffffff" fill-opacity="1"><g transform="translate(32.240998, 6.268192)"><g><path d="M 1.6875 -3.078125 C 2 -3.078125 2.265625 -3.015625 2.484375 -2.890625 C 2.710938 -2.765625 2.890625 -2.582031 3.015625 -2.34375 C 3.140625 -2.113281 3.203125 -1.835938 3.203125 -1.515625 C 3.203125 -1.191406 3.140625 -0.910156 3.015625 -0.671875 C 2.890625 -0.441406 2.710938 -0.265625 2.484375 -0.140625 C 2.265625 -0.015625 2 0.046875 1.6875 0.046875 C 1.375 0.046875 1.101562 -0.015625 0.875 -0.140625 C 0.644531 -0.265625 0.46875 -0.441406 0.34375 -0.671875 C 0.226562 -0.910156 0.171875 -1.191406 0.171875 -1.515625 C 0.171875 -1.835938 0.226562 -2.113281 0.34375 -2.34375 C 0.46875 -2.582031 0.644531 -2.765625 0.875 -2.890625 C 1.101562 -3.015625 1.375 -3.078125 1.6875 -3.078125 Z M 1.6875 -2.359375 C 1.5625 -2.359375 1.457031 -2.328125 1.375 -2.265625 C 1.289062 -2.203125 1.226562 -2.109375 1.1875 -1.984375 C 1.144531 -1.867188 1.125 -1.710938 1.125 -1.515625 C 1.125 -1.328125 1.144531 -1.171875 1.1875 -1.046875 C 1.226562 -0.921875 1.289062 -0.828125 1.375 -0.765625 C 1.457031 -0.703125 1.5625 -0.671875 1.6875 -0.671875 C 1.8125 -0.671875 1.914062 -0.703125 2 -0.765625 C 2.082031 -0.828125 2.140625 -0.921875 2.171875 -1.046875 C 2.210938 -1.171875 2.234375 -1.328125 2.234375 -1.515625 C 2.234375 -1.710938 2.210938 -1.867188 2.171875 -1.984375 C 2.140625 -2.109375 2.082031 -2.203125 2 -2.265625 C 1.914062 -2.328125 1.8125 -2.359375 1.6875 -2.359375 Z M 1.6875 -2.359375 "/></g></g></g></g></g><g clip-path="url(#a3f37aa9d6)"><g clip-path="url(#9b2aa12937)"><g transform="matrix(1, 0, 0, 1, 104, 4)"><g clip-path="url(#0e00a8b520)"><g clip-path="url(#81295f24fe)"><g clip-path="url(#5e036c5616)"><path fill="#15ac71" d="M 0.273438 0.628906 L 3.972656 0.628906 L 3.972656 4.328125 L 0.273438 4.328125 Z M 0.273438 0.628906 " fill-opacity="1" fill-rule="nonzero"/></g></g></g></g></g></g></svg>